<svg width="48" height="48" viewBox="0 0 48 48" fill="none" xmlns="http://www.w3.org/2000/svg">
<g clip-path="url(#clip0_770_30313)">
<g clip-path="url(#clip1_770_30313)">
<g clip-path="url(#clip2_770_30313)">
<mask id="mask0_770_30313" style="mask-type:luminance" maskUnits="userSpaceOnUse" x="0" y="0" width="48" height="48">
<path d="M47.02 0.490234H0V47.5102H47.02V0.490234Z" fill="white"/>
</mask>
<g mask="url(#mask0_770_30313)">
<path d="M40.04 19.5912C39.8451 19.5912 39.6582 19.6686 39.5205 19.8065C39.3827 19.9443 39.3053 20.1311 39.3053 20.3259V28.4075C39.3053 28.6023 39.3827 28.7892 39.5205 28.9271C39.6582 29.0648 39.8451 29.1422 40.04 29.1422C40.2348 29.1422 40.4217 29.0648 40.5595 28.9271C40.6973 28.7892 40.7747 28.6023 40.7747 28.4075V20.3259C40.7747 20.1311 40.6973 19.9443 40.5595 19.8065C40.4217 19.6686 40.2348 19.5912 40.04 19.5912ZM18.9904 7.19416L10.6635 11.8205C10.4934 11.9151 10.3678 12.0735 10.3143 12.2607C10.2609 12.4479 10.284 12.6487 10.3784 12.8189C10.6532 13.3302 11.2644 13.1679 11.3776 13.1047L19.7045 8.47839C19.8749 8.3837 20.0006 8.22522 20.054 8.03785C20.1075 7.85046 20.0843 7.64952 19.9896 7.47922C19.895 7.30892 19.7365 7.18321 19.5491 7.12975C19.3617 7.0763 19.1608 7.09946 18.9904 7.19416ZM19.7038 39.5204L11.3769 34.8941C11.2925 34.847 11.1998 34.8171 11.1039 34.8059C11.0079 34.7949 10.9107 34.8028 10.8179 34.8294C10.7251 34.8559 10.6384 34.9006 10.5629 34.9607C10.4873 35.0209 10.4243 35.0953 10.3777 35.1798C10.3308 35.2642 10.301 35.3569 10.2899 35.4527C10.279 35.5484 10.2869 35.6454 10.3134 35.7382C10.3398 35.8309 10.3843 35.9175 10.4442 35.993C10.5042 36.0685 10.5784 36.1315 10.6628 36.1783L18.9897 40.8046C19.1029 40.8678 19.6781 41.028 19.9889 40.5189C20.2005 40.1728 20.058 39.7173 19.7038 39.5204Z" fill="white" fill-opacity="0.2"/>
<path d="M43.72 12.3477L23.8834 0.592724C23.77 0.52563 23.6406 0.490234 23.5088 0.490234C23.3769 0.490234 23.2475 0.52563 23.1341 0.592724L3.2975 12.3477C3.18782 12.4127 3.09697 12.5052 3.03384 12.616C2.97073 12.7268 2.93752 12.8521 2.9375 12.9795V35.0202C2.9375 35.2802 3.07489 35.5205 3.2975 35.652L23.1341 47.407C23.2475 47.4743 23.3769 47.5097 23.5088 47.5097C23.6406 47.5097 23.77 47.4743 23.8834 47.407L43.72 35.652C43.8297 35.5869 43.9205 35.4946 43.9836 35.3838C44.0468 35.273 44.08 35.1477 44.08 35.0202V12.9795C44.0801 12.8521 44.0469 12.7267 43.9837 12.6159C43.9206 12.5051 43.8297 12.4126 43.72 12.3477ZM35.6156 29.967L34.9119 31.2571L41.8598 35.0466L24.2434 45.4858V37.2242H22.7741V45.4858L5.15773 35.0466L12.1057 31.2571L11.4018 29.967L4.40688 33.7823V14.2175L11.4018 18.0327L12.1057 16.7426L5.15773 12.9531L22.7741 2.51394V10.0408H24.2434V2.51394L41.8598 12.9531L34.9119 16.7426L35.6156 18.0327L42.6106 14.2175V33.7829L35.6156 29.967Z" fill="white" fill-opacity="0.2"/>
<path d="M22.4066 17.3867H24.6107V21.0602H22.4066V17.3867ZM16.8965 26.203H19.1005V29.8764H16.8965V26.203Z" fill="#B2B0B6"/>
<path d="M23.5095 8.93945L10.2852 16.2863V30.9801L23.5095 38.327L36.7339 30.9801V16.2863L23.5095 8.93945ZM28.6523 16.6537C28.6523 16.4588 28.7297 16.2719 28.8676 16.1342C29.0053 15.9964 29.1922 15.919 29.387 15.919C29.5819 15.919 29.7688 15.9964 29.9065 16.1342C30.0443 16.2719 30.1217 16.4588 30.1217 16.6537V21.7965C30.1217 21.9913 30.0443 22.1782 29.9065 22.316C29.7688 22.4538 29.5819 22.5312 29.387 22.5312C29.1922 22.5312 29.0053 22.4538 28.8676 22.316C28.7297 22.1782 28.6523 21.9913 28.6523 21.7965V16.6537ZM16.8973 16.6537C16.8973 16.4588 16.9747 16.2719 17.1126 16.1342C17.2503 15.9964 17.4372 15.919 17.632 15.919C17.8269 15.919 18.0138 15.9964 18.1515 16.1342C18.2893 16.2719 18.3667 16.4588 18.3667 16.6537V21.7965C18.3667 21.9913 18.2893 22.1782 18.1515 22.316C18.0138 22.4538 17.8269 22.5312 17.632 22.5312C17.4372 22.5312 17.2503 22.4538 17.1126 22.316C16.9747 22.1782 16.8973 21.9913 16.8973 21.7965V16.6537ZM20.5708 30.6127C20.5708 30.8076 20.4934 30.9945 20.3556 31.1322C20.2178 31.27 20.0309 31.3474 19.8361 31.3474H16.1627C15.9678 31.3474 15.7809 31.27 15.6432 31.1322C15.5054 30.9945 15.428 30.8076 15.428 30.6127V25.4699C15.428 25.2751 15.5054 25.0882 15.6432 24.9504C15.7809 24.8126 15.9678 24.7352 16.1627 24.7352H19.8361C20.0309 24.7352 20.2178 24.8126 20.3556 24.9504C20.4934 25.0882 20.5708 25.2751 20.5708 25.4699V30.6127ZM24.2442 30.6127C24.2442 30.8076 24.1668 30.9945 24.029 31.1322C23.8913 31.27 23.7044 31.3474 23.5095 31.3474C23.3147 31.3474 23.1278 31.27 22.9901 31.1322C22.8522 30.9945 22.7748 30.8076 22.7748 30.6127V25.4699C22.7748 25.2751 22.8522 25.0882 22.9901 24.9504C23.1278 24.8126 23.3147 24.7352 23.5095 24.7352C23.7044 24.7352 23.8913 24.8126 24.029 24.9504C24.1668 25.0882 24.2442 25.2751 24.2442 25.4699V30.6127ZM26.0809 21.7965C26.0809 21.9913 26.0036 22.1782 25.8657 22.316C25.728 22.4538 25.5411 22.5312 25.3462 22.5312H21.6728C21.478 22.5312 21.2911 22.4538 21.1533 22.316C21.0155 22.1782 20.9381 21.9913 20.9381 21.7965V16.6537C20.9381 16.4588 21.0155 16.2719 21.1533 16.1342C21.2911 15.9964 21.478 15.919 21.6728 15.919H25.3462C25.5411 15.919 25.728 15.9964 25.8657 16.1342C26.0036 16.2719 26.0809 16.4588 26.0809 16.6537V21.7965ZM31.5911 30.6127C31.5911 30.8076 31.5137 30.9945 31.3759 31.1322C31.2381 31.27 31.0512 31.3474 30.8564 31.3474H27.183C26.9881 31.3474 26.8012 31.27 26.6635 31.1322C26.5257 30.9945 26.4483 30.8076 26.4483 30.6127V25.4699C26.4483 25.2751 26.5257 25.0882 26.6635 24.9504C26.8012 24.8126 26.9881 24.7352 27.183 24.7352H30.8564C31.0512 24.7352 31.2381 24.8126 31.3759 24.9504C31.5137 25.0882 31.5911 25.2751 31.5911 25.4699V30.6127Z" fill="#B2B0B6"/>
<path d="M27.916 26.2051H30.1201V29.8785H27.916V26.2051Z" fill="#B2B0B6"/>
</g>
</g>
</g>
</g>
<defs>
<clipPath id="clip0_770_30313">
<rect width="47.02" height="48" fill="white"/>
</clipPath>
<clipPath id="clip1_770_30313">
<rect width="47.02" height="48" fill="white"/>
</clipPath>
<clipPath id="clip2_770_30313">
<rect width="47.02" height="47.9996" fill="white"/>
</clipPath>
</defs>
</svg>
