<svg width="48" height="48" viewBox="0 0 48 48" fill="none" xmlns="http://www.w3.org/2000/svg">
<g clip-path="url(#clip0_770_23040)">
<g clip-path="url(#clip1_770_23040)">
<g clip-path="url(#clip2_770_23040)">
<mask id="mask0_770_23040" style="mask-type:luminance" maskUnits="userSpaceOnUse" x="0" y="0" width="48" height="48">
<path d="M47.02 0.490234H0V47.5102H47.02V0.490234Z" fill="white"/>
</mask>
<g mask="url(#mask0_770_23040)">
<path d="M40.7798 8.70771C34.46 7.02381 30.4765 4.05347 28.6612 2.43054C27.2483 1.17864 25.4182 0.490234 23.5088 0.490234C21.5993 0.490234 19.7692 1.17937 18.3534 2.43348C16.541 4.05347 12.5567 7.02381 6.23772 8.70771C4.29447 9.2264 2.9375 10.983 2.9375 12.9799V22.1121C2.9375 33.2191 9.95886 43.2079 20.4076 46.9674C21.4024 47.3273 22.4464 47.5102 23.5088 47.5102C24.5711 47.5102 25.6144 47.3273 26.6099 46.9674C37.0593 43.2064 44.08 33.2184 44.08 22.1121V12.9799C44.08 10.9823 42.7223 9.2264 40.7798 8.70771ZM42.6106 22.1121C42.6106 32.6013 35.9801 42.0339 26.1103 45.5847H26.1089C24.4277 46.1897 22.5883 46.1897 20.9072 45.5847C11.0374 42.0339 4.40688 32.6013 4.40688 22.1121V12.9799C4.40688 11.648 5.31568 10.474 6.61682 10.1264C12.8999 8.45351 17.0001 5.61395 19.3313 3.53037C20.4752 2.51724 21.9586 1.95887 23.5094 1.95887C25.0604 1.95887 26.5437 2.51724 27.6847 3.52743C30.0188 5.61395 34.1191 8.45278 40.4022 10.1257C41.7032 10.4732 42.6121 11.6465 42.6121 12.9792V22.1114L42.6106 22.1121Z" fill="white" fill-opacity="0.2"/>
<path d="M34.9434 13.7548C35.0301 13.7879 35.6149 13.9965 35.8926 13.3324C36.0491 12.9577 35.8485 12.5278 35.4701 12.3831C32.1111 11.0952 29.0915 9.39296 26.4966 7.32187C26.344 7.20095 26.1497 7.14529 25.9563 7.16704C25.7627 7.18879 25.5857 7.28617 25.4637 7.43796C25.3424 7.59044 25.2865 7.7848 25.3083 7.97843C25.33 8.17205 25.4277 8.34915 25.5798 8.47093C28.293 10.6346 31.4433 12.4132 34.9434 13.7548ZM21.1694 40.2293C15.2082 37.5263 11.4195 32.2506 10.4996 25.3724C10.4881 25.2756 10.4575 25.1822 10.4095 25.0974C10.3615 25.0126 10.2972 24.9382 10.2202 24.8785C10.1433 24.8188 10.0552 24.775 9.96105 24.7497C9.86701 24.7243 9.76885 24.718 9.6723 24.7309C9.57574 24.7439 9.48273 24.776 9.39867 24.8251C9.31461 24.8744 9.24118 24.9398 9.18266 25.0177C9.12414 25.0956 9.0817 25.1843 9.0578 25.2788C9.03388 25.3732 9.029 25.4715 9.04342 25.5678C10.033 32.9654 14.1238 38.6482 20.5634 41.5679C20.6617 41.6126 21.3082 41.756 21.536 41.202C21.6904 40.8265 21.539 40.3968 21.1694 40.2293ZM10.2858 22.1126V17.0946C10.2858 16.8998 10.2084 16.713 10.0706 16.5752C9.93284 16.4374 9.74594 16.36 9.55109 16.36C9.35624 16.36 9.16937 16.4374 9.03159 16.5752C8.89381 16.713 8.81641 16.8998 8.81641 17.0946V22.1126C8.81641 22.3075 8.89381 22.4943 9.03159 22.6321C9.16937 22.7699 9.35624 22.8473 9.55109 22.8473C9.74594 22.8473 9.93284 22.7699 10.0706 22.6321C10.2084 22.4943 10.2858 22.3075 10.2858 22.1126ZM12.0769 13.7548C15.5718 12.4176 18.7222 10.6397 21.4413 8.47166C21.5936 8.35007 21.6915 8.17294 21.7132 7.97921C21.7351 7.78549 21.6789 7.59106 21.5574 7.43869C21.4358 7.28632 21.2586 7.18848 21.0649 7.16671C20.8712 7.14494 20.6767 7.20102 20.5244 7.32261C17.9236 9.39737 14.9055 11.1004 11.5516 12.3838C11.3698 12.4536 11.223 12.5927 11.1437 12.7705C11.0644 12.9484 11.0589 13.1505 11.1285 13.3324C11.2923 13.9201 11.9909 13.7879 12.0769 13.7548ZM37.3473 24.7421C37.1542 24.7162 36.9587 24.768 36.8038 24.8863C36.649 25.0044 36.5474 25.1793 36.5215 25.3724C35.6016 32.2498 31.8128 37.5263 25.8517 40.2293C25.7637 40.269 25.6845 40.3259 25.6185 40.3963C25.5526 40.4667 25.5012 40.5495 25.4672 40.6398C25.4332 40.7301 25.4173 40.8263 25.4205 40.9227C25.4237 41.0192 25.4458 41.1141 25.4858 41.202C25.7384 41.7486 26.3601 41.6126 26.4585 41.5679C32.898 38.6474 36.9887 32.9654 37.9784 25.5678C38.0043 25.3748 37.9524 25.1792 37.8342 25.0244C37.716 24.8695 37.5403 24.768 37.3473 24.7421ZM37.4692 16.36C37.2744 16.36 37.0875 16.4374 36.9497 16.5752C36.8119 16.713 36.7345 16.8998 36.7345 17.0946V22.1126C36.7345 22.3075 36.8119 22.4943 36.9497 22.6321C37.0875 22.7699 37.2744 22.8473 37.4692 22.8473C37.6641 22.8473 37.851 22.7699 37.9887 22.6321C38.1265 22.4943 38.2039 22.3075 38.2039 22.1126V17.0946C38.2039 16.8998 38.1265 16.713 37.9887 16.5752C37.851 16.4374 37.6641 16.36 37.4692 16.36Z" fill="white" fill-opacity="0.2"/>
<path d="M31.5889 30.613V21.0621C31.5889 16.6062 27.9633 12.9805 23.5074 12.9805C22.4458 12.9779 21.3942 13.1859 20.4135 13.5923C19.4327 13.9988 18.5423 14.5956 17.7938 15.3484C17.0409 16.097 16.4441 16.9874 16.0377 17.9681C15.6312 18.9489 15.4233 20.0005 15.4258 21.0621V30.613C15.4258 32.6386 17.0738 34.2864 19.0992 34.2864H27.9155C29.9411 34.2864 31.5889 32.6386 31.5889 30.613ZM18.8326 16.3873C19.4451 15.7714 20.1736 15.2831 20.976 14.9505C21.7784 14.6181 22.6388 14.4479 23.5074 14.4499C27.1537 14.4499 30.1196 17.4158 30.1196 21.0621V22.5314H27.9155V21.0621C27.9147 20.1899 27.6554 19.3375 27.1704 18.6126C26.6853 17.8877 25.9964 17.3228 25.1905 16.9892C24.3847 16.6557 23.498 16.5684 22.6425 16.7385C21.7871 16.9085 21.0012 17.3284 20.3843 17.9448C19.5595 18.7724 19.0973 19.8937 19.0992 21.0621V22.5314H16.8952V21.0621C16.8952 19.2973 17.5836 17.6369 18.8326 16.3873ZM20.5686 22.5314V21.0621C20.5686 20.2789 20.8742 19.5391 21.4231 18.9837C21.8343 18.5719 22.3584 18.2914 22.9291 18.1776C23.4998 18.0637 24.0915 18.1217 24.6292 18.3443C25.1669 18.5668 25.6265 18.9437 25.95 19.4275C26.2734 19.9113 26.446 20.4802 26.4461 21.0621V22.5314H20.5686ZM16.8952 30.613V24.0008H30.1196V30.613C30.1196 31.8282 29.1307 32.8171 27.9155 32.8171H19.0992C17.8841 32.8171 16.8952 31.8282 16.8952 30.613Z" fill="white" fill-opacity="0.2"/>
<path d="M23.5086 10.4818C22.7884 10.484 22.0863 10.2557 21.5053 9.83016C20.9242 9.40457 20.4947 8.80417 20.2796 8.11682C20.1811 7.78757 20.1304 7.44589 20.129 7.10222C20.129 5.23905 21.6446 3.72266 23.5086 3.72266C25.3724 3.72266 26.8881 5.23832 26.8881 7.10222C26.8881 7.43356 26.8389 7.77005 26.7419 8.10213C26.5286 8.79243 26.0996 9.39608 25.5176 9.82429C24.9357 10.2526 24.2311 10.4834 23.5086 10.4818ZM9.54948 17.8287C7.68632 17.8287 6.16992 16.313 6.16992 14.4491C6.16992 12.5852 7.68558 11.0695 9.54948 11.0695C10.7309 11.0695 11.8101 11.6713 12.4368 12.68C12.7593 13.2083 12.9291 13.8187 12.9291 14.4484C12.9291 16.3116 11.4134 17.8287 9.54948 17.8287ZM37.4676 17.8287C36.5716 17.8277 35.7125 17.4713 35.079 16.8377C34.4454 16.2041 34.089 15.3451 34.0881 14.4491C34.0881 13.8195 34.257 13.2089 34.5774 12.6852C34.9621 12.0559 35.5418 11.5695 36.2284 11.3002C36.9148 11.0308 37.6707 10.9932 38.3806 11.1931C39.0905 11.3929 39.7157 11.8192 40.161 12.4071C40.6062 12.995 40.8472 13.7123 40.8472 14.4499C40.8472 16.3137 39.3315 17.8287 37.4676 17.8287Z" fill="#DADADB"/>
<path d="M23.5085 44.2787C25.375 44.2787 26.888 42.7656 26.888 40.8991C26.888 39.0326 25.375 37.5195 23.5085 37.5195C21.642 37.5195 20.1289 39.0326 20.1289 40.8991C20.1289 42.7656 21.642 44.2787 23.5085 44.2787Z" fill="#DADADB"/>
<path d="M24.2434 27.0741V26.2034C24.2434 26.0086 24.1661 25.8217 24.0282 25.684C23.8905 25.5461 23.7036 25.4688 23.5087 25.4688C23.3139 25.4688 23.127 25.5461 22.9893 25.684C22.8514 25.8217 22.7741 26.0086 22.7741 26.2034V27.0741C21.9218 27.3797 21.3047 28.1886 21.3047 29.1422C21.3047 30.3544 22.2965 31.3463 23.5087 31.3463C24.721 31.3463 25.7128 30.3544 25.7128 29.1422C25.7128 28.1886 25.0957 27.3797 24.2434 27.0741Z" fill="#DADADB"/>
</g>
</g>
</g>
</g>
<defs>
<clipPath id="clip0_770_23040">
<rect width="48" height="48" fill="white"/>
</clipPath>
<clipPath id="clip1_770_23040">
<rect width="47.02" height="48" fill="white"/>
</clipPath>
<clipPath id="clip2_770_23040">
<rect width="47.02" height="47.9996" fill="white"/>
</clipPath>
</defs>
</svg>
