<svg width="48" height="48" viewBox="0 0 48 48" fill="none" xmlns="http://www.w3.org/2000/svg">
<path fill-rule="evenodd" clip-rule="evenodd" d="M29 21.0805H19.0458C18.8249 21.0805 18.6243 21.1706 18.479 21.3179C18.3336 21.4633 18.2416 21.6638 18.2416 21.8847V29.2421C18.2416 29.463 18.3317 29.6636 18.479 29.8089C18.6243 29.9543 18.8249 30.0463 19.0458 30.0463H29C29.2209 30.0463 29.4215 29.9562 29.5668 29.8089C29.7122 29.6636 29.8042 29.463 29.8042 29.2421V21.8847C29.8042 21.6638 29.7141 21.4632 29.5668 21.3179C29.4215 21.1725 29.2209 21.0805 29 21.0805ZM26.3666 19.7959V18.9936C26.3666 18.3494 26.1034 17.7642 25.6783 17.3391C25.2532 16.914 24.668 16.6509 24.0239 16.6509C23.3798 16.6509 22.7946 16.914 22.3695 17.3391C21.9444 17.7642 21.6812 18.3494 21.6812 18.9936V19.7959H26.3666ZM20.3947 19.7959V18.9936C20.3947 17.9961 20.8032 17.0888 21.4602 16.4318C22.1172 15.7749 23.0245 15.3663 24.0219 15.3663C25.0194 15.3663 25.9266 15.7749 26.5836 16.4318C27.2406 17.0888 27.6492 17.9961 27.6492 18.9936V19.7959H28.9981C29.5741 19.7959 30.0949 20.0296 30.474 20.4087C30.8531 20.7879 31.0869 21.3087 31.0869 21.8847V29.2421C31.0869 29.8182 30.8531 30.339 30.474 30.7181C30.0949 31.0972 29.5741 31.3309 28.9981 31.3309H19.0438C18.4696 31.3309 17.947 31.0972 17.5679 30.7181C17.1888 30.339 16.9551 29.8181 16.9551 29.2421V21.8847C16.9551 21.3105 17.1888 20.7879 17.5679 20.4087C17.947 20.0296 18.4678 19.7959 19.0438 19.7959H20.3947ZM24.055 24.4335C24.1378 24.5163 24.1875 24.6286 24.1875 24.7537C24.1875 24.8789 24.136 24.993 24.055 25.0739C23.9722 25.1568 23.86 25.2065 23.7348 25.2065C23.6097 25.2065 23.4956 25.1549 23.4146 25.0739C23.3318 24.9911 23.2821 24.8789 23.2821 24.7537C23.2821 24.6286 23.3336 24.5145 23.4146 24.4335C23.4974 24.3507 23.6097 24.301 23.7348 24.301C23.86 24.301 23.9741 24.3525 24.055 24.4335ZM23.7348 23.0165C24.2151 23.0165 24.6495 23.2116 24.9642 23.5262C25.2789 23.8409 25.4739 24.2752 25.4739 24.7556C25.4739 25.2359 25.2788 25.6702 24.9642 25.9849C24.7985 26.1505 24.5998 26.283 24.3771 26.3714V27.5602C24.3771 27.9154 24.09 28.2025 23.7348 28.2025C23.3796 28.2025 23.0925 27.9154 23.0925 27.5602V26.3714C22.8699 26.283 22.6711 26.1505 22.5055 25.9849C22.1908 25.6702 21.9957 25.2359 21.9957 24.7556C21.9957 24.2753 22.1908 23.8409 22.5055 23.5262C22.8202 23.2115 23.2545 23.0165 23.7348 23.0165ZM35.4647 22.6779C35.4647 25.7825 34.3237 29.0658 32.1835 31.8628C30.2456 34.3932 27.4926 36.5243 24.0237 37.7645C20.5547 36.5223 17.7998 34.3931 15.8639 31.8628C13.7218 29.0655 12.5827 25.7807 12.5827 22.6779V14.5751C14.5536 14.1334 16.4804 13.5795 18.3558 12.9188C20.3102 12.2306 22.202 11.4319 24.0257 10.5264C25.8476 11.43 27.7413 12.2306 29.6956 12.9188C31.5709 13.5776 33.4977 14.1316 35.4687 14.5751V22.6779H35.4647ZM36.5892 14.1242V22.6779C36.5892 26.0199 35.3672 29.5477 33.0742 32.5436C30.9781 35.282 27.9837 37.5789 24.2058 38.8891C24.0807 38.9314 23.9537 38.9277 23.8378 38.8872C20.0596 37.5788 17.0673 35.2803 14.9713 32.5436C12.6783 29.5476 11.4563 26.0196 11.4563 22.6779V14.1243C11.4563 13.8427 11.6643 13.609 11.933 13.5685C14.007 13.1213 16.0277 12.5508 17.984 11.8625C19.9771 11.1614 21.9094 10.3369 23.7698 9.40201C23.9355 9.31919 24.1213 9.32472 24.2741 9.40201C26.1346 10.3369 28.067 11.1614 30.0599 11.8625C32.0254 12.5545 34.0571 13.1287 36.142 13.5758C36.4071 13.6311 36.5874 13.8648 36.5874 14.1243L36.5892 14.1242ZM24.7947 4.40551C24.5978 4.20859 24.3236 4.08529 24.0218 4.08529C23.72 4.08529 23.4476 4.20675 23.2489 4.40551C23.0519 4.60242 22.9286 4.87663 22.9286 5.17843C22.9286 5.48022 23.0501 5.75263 23.2489 5.95134C23.4458 6.14826 23.72 6.27156 24.0218 6.27156C24.3236 6.27156 24.596 6.1501 24.7947 5.95134C24.9916 5.75259 25.1149 5.48022 25.1149 5.17843C25.1149 4.87663 24.9935 4.60423 24.7947 4.40551ZM24.0236 2.80078C24.6806 2.80078 25.2732 3.06763 25.7038 3.49644C26.1344 3.92707 26.3995 4.5215 26.3995 5.17664C26.3995 5.36066 26.3792 5.53918 26.3387 5.71032C27.9821 6.51636 29.6255 7.21752 31.2982 7.81749C33.1441 8.47815 35.0396 9.02106 37.027 9.44799L40.3598 10.1639C40.6248 10.2191 40.8052 10.4528 40.8052 10.7123H40.807V18.1268C40.807 18.4378 40.5549 18.6881 40.2457 18.6881C39.9347 18.6881 39.6844 18.4359 39.6844 18.1268V11.1669L36.797 10.5467C34.7708 10.1124 32.8274 9.55479 30.9226 8.87205C29.1982 8.2537 27.5125 7.536 25.8359 6.71338C25.7936 6.76307 25.7494 6.81092 25.7034 6.85693C25.2728 7.28756 24.6784 7.55258 24.0232 7.55258C23.3662 7.55258 22.7737 7.28573 22.343 6.85693C21.9124 6.42629 21.6474 5.83186 21.6474 5.17673C21.6474 4.51975 21.9142 3.92718 22.343 3.49653C22.7736 3.06589 23.3685 2.80078 24.0236 2.80078ZM24.7947 42.0526C24.5978 41.8556 24.3236 41.7323 24.0218 41.7323C23.72 41.7323 23.4476 41.8538 23.2489 42.0526C23.0519 42.2495 22.9286 42.5237 22.9286 42.8255C22.9286 43.1273 23.0501 43.3997 23.2489 43.5984C23.4458 43.7953 23.72 43.9186 24.0218 43.9186C24.3236 43.9186 24.596 43.7971 24.7947 43.5984C24.9916 43.4015 25.1149 43.1273 25.1149 42.8255C25.1149 42.5237 24.9935 42.2513 24.7947 42.0526ZM24.0236 40.4478C24.6806 40.4478 25.2732 40.7147 25.7038 41.1435C26.1344 41.5741 26.3995 42.1685 26.3995 42.8237C26.3995 43.4807 26.1326 44.0732 25.7038 44.5039C25.2732 44.9345 24.6788 45.1995 24.0236 45.1995C23.3666 45.1995 22.7741 44.9327 22.3434 44.5039C21.9128 44.0733 21.6478 43.4788 21.6478 42.8237C21.6478 42.7409 21.6514 42.6599 21.6606 42.5808C18.8137 41.4747 16.1947 39.8056 13.9941 37.7207C11.6864 35.5344 9.83503 32.888 8.65916 29.9529C8.54323 29.6658 8.68309 29.3382 8.97018 29.2241C9.25727 29.11 9.58485 29.248 9.69895 29.5351C10.8142 32.3195 12.5717 34.8296 14.7654 36.9091C16.8541 38.8874 19.3367 40.4738 22.0329 41.5264C22.123 41.3884 22.2261 41.2614 22.342 41.1455C22.7727 40.7149 23.3671 40.4498 24.0222 40.4498L24.0236 40.4478ZM40.9085 23.2279C40.7116 23.031 40.4374 22.9077 40.1356 22.9077C39.8338 22.9077 39.5614 23.0292 39.3627 23.2279C39.1658 23.4267 39.0425 23.6991 39.0425 24.0009C39.0425 24.3027 39.1639 24.5751 39.3627 24.7738C39.5596 24.9707 39.8338 25.094 40.1356 25.094C40.4374 25.094 40.7098 24.9725 40.9085 24.7738C41.1054 24.5769 41.2287 24.3027 41.2287 24.0009C41.2287 23.6991 41.1073 23.4267 40.9085 23.2279ZM40.1374 21.6232C40.7944 21.6232 41.387 21.8901 41.8176 22.3189C42.2483 22.7495 42.5133 23.3439 42.5133 23.9991C42.5133 24.6561 42.2465 25.2486 41.8176 25.6793C41.4569 26.04 40.9822 26.2848 40.4522 26.3547C39.8817 29.2845 38.6505 32.0156 36.9353 34.4151C35.0454 37.0577 32.5683 39.2991 29.7381 40.9575C29.4712 41.1139 29.1271 41.0237 28.9706 40.7569C28.8142 40.4901 28.9044 40.1459 29.1712 39.9895C31.8673 38.4105 34.2249 36.2776 36.0227 33.7618C37.6293 31.5129 38.7869 28.962 39.3334 26.2314C39.0003 26.1118 38.7022 25.9204 38.4574 25.6756C38.0268 25.245 37.7618 24.6505 37.7618 23.9954C37.7618 23.3384 38.0286 22.7459 38.4574 22.3152C38.8881 21.8846 39.4825 21.6196 40.1376 21.6196L40.1374 21.6232ZM8.63512 23.2279C8.4382 23.031 8.164 22.9077 7.8622 22.9077C7.5604 22.9077 7.288 23.0292 7.08928 23.2279C6.89236 23.4249 6.76906 23.6991 6.76906 24.0009C6.76906 24.3027 6.89052 24.5751 7.08928 24.7738C7.28619 24.9707 7.5604 25.094 7.8622 25.094C8.164 25.094 8.4364 24.9725 8.63512 24.7738C8.83203 24.575 8.95533 24.3027 8.95533 24.0009C8.95533 23.6991 8.83387 23.4267 8.63512 23.2279ZM8.36091 21.6766C8.81731 21.7741 9.22584 22.0023 9.54238 22.3207C9.97301 22.7513 10.238 23.3457 10.238 24.0009C10.238 24.6578 9.97119 25.2504 9.54238 25.6811C9.11175 26.1117 8.51732 26.3767 7.86218 26.3767C7.20521 26.3767 6.61263 26.1099 6.18198 25.6811C5.75135 25.2504 5.48633 24.656 5.48633 24.0009C5.48633 23.3439 5.75318 22.7513 6.18198 22.3207C6.47091 22.0317 6.83161 21.8183 7.23649 21.7078V10.7138C7.23649 10.4322 7.44445 10.1985 7.71496 10.158L11.0165 9.4495C12.2292 9.19002 13.4328 8.87902 14.6235 8.52012C15.8104 8.1631 16.9809 7.75639 18.1311 7.30369C18.42 7.19143 18.7457 7.33314 18.858 7.62207C18.9703 7.91099 18.8286 8.23673 18.5396 8.349C17.3582 8.8146 16.1583 9.23051 14.9437 9.59671C13.7291 9.96293 12.4961 10.2795 11.2483 10.5481L8.36087 11.1683V21.6785L8.36091 21.6766Z" fill="#F1F2F3"/>
</svg>
