<svg width="48" height="48" viewBox="0 0 48 48" fill="none" xmlns="http://www.w3.org/2000/svg">
<path d="M19.8753 11.7673C21.4204 11.7673 22.6779 10.5098 22.6779 8.96473C22.6779 7.41961 21.4204 6.16211 19.8753 6.16211C18.3302 6.16211 17.0727 7.41961 17.0727 8.96473C17.0709 10.5098 18.3284 11.7673 19.8753 11.7673ZM19.8753 7.11637C20.8943 7.11637 21.7221 7.94595 21.7221 8.96491C21.7221 9.98387 20.8925 10.8117 19.8753 10.8117C18.8563 10.8117 18.0285 9.98212 18.0285 8.96491C18.0268 7.94595 18.8563 7.11637 19.8753 7.11637ZM15.0541 19.2298H21.8396V20.0857C21.8396 20.3488 22.0535 20.5627 22.3166 20.5627H33.0692C33.3323 20.5627 33.5463 20.3488 33.5463 20.0857V19.2298H40.3317C40.5948 19.2298 40.8087 19.0159 40.8087 18.7528V17.5812C40.8087 14.6594 38.4323 12.2828 35.5103 12.2828C33.9021 12.2828 32.4043 13.0142 31.3994 14.2541C30.3892 13.4245 29.0966 12.9247 27.6918 12.9247C26.2852 12.9247 24.9944 13.4246 23.9842 14.2541C22.9793 13.0124 21.4833 12.2828 19.8733 12.2828C16.9514 12.2828 14.5749 14.6593 14.5749 17.5812V18.7528C14.5749 19.0159 14.7893 19.2298 15.0541 19.2298ZM35.5106 13.2369C37.9063 13.2369 39.853 15.1853 39.853 17.5793V18.2739H38.8218V16.7498C38.8218 16.4867 38.6078 16.2728 38.3447 16.2728C38.0817 16.2728 37.8677 16.4867 37.8677 16.7498V18.2739H33.52C33.4095 16.9971 32.8886 15.8378 32.0888 14.9258C32.9131 13.8665 34.1636 13.2369 35.5106 13.2369ZM32.5904 18.7791V19.6086H31.3312V17.8548C31.3312 17.5918 31.1172 17.3778 30.8541 17.3778C30.5911 17.3778 30.3771 17.5918 30.3771 17.8548V19.6086H25.0105V17.8548C25.0105 17.5918 24.7965 17.3778 24.5334 17.3778C24.2703 17.3778 24.0564 17.5918 24.0564 17.8548V19.6086H22.7936V18.7791C22.7936 16.0782 24.9911 13.8807 27.692 13.8807C30.3928 13.8807 32.5904 16.0782 32.5904 18.7791ZM15.531 17.5812C15.531 15.1855 17.4795 13.2387 19.8735 13.2387C21.2204 13.2387 22.4709 13.8666 23.2952 14.9276C22.4955 15.8396 21.9728 16.9989 21.8641 18.2757H17.5164V16.7516C17.5164 16.4885 17.3024 16.2746 17.0393 16.2746C16.7762 16.2746 16.5623 16.4885 16.5623 16.7516V18.2757H15.531V17.5812ZM35.5106 11.7673C37.0557 11.7673 38.3132 10.5098 38.3132 8.96473C38.3132 7.41961 37.0557 6.16211 35.5106 6.16211C33.9655 6.16211 32.708 7.41961 32.708 8.96473C32.708 10.5098 33.9655 11.7673 35.5106 11.7673ZM35.5106 7.11637C36.5296 7.11637 37.3574 7.94595 37.3574 8.96491C37.3574 9.98387 36.5278 10.8117 35.5106 10.8117C34.4916 10.8117 33.6638 9.98212 33.6638 8.96491C33.6638 7.94595 34.4916 7.11637 35.5106 7.11637ZM27.6921 12.3043C29.3845 12.3043 30.763 10.9276 30.763 9.2334C30.763 7.54097 29.3862 6.16247 27.6921 6.16247C25.9996 6.16247 24.6211 7.53922 24.6211 9.2334C24.6229 10.9258 25.9996 12.3043 27.6921 12.3043ZM27.6921 7.11817C28.8584 7.11817 29.8072 8.06699 29.8072 9.23326C29.8072 10.3996 28.8583 11.3484 27.6921 11.3484C26.5258 11.3484 25.577 10.3995 25.577 9.23326C25.577 8.06695 26.5258 7.11817 27.6921 7.11817ZM43.1311 20.9665C42.184 19.7651 40.1636 19.0618 37.3366 20.6946L29.9917 24.9354C29.4393 23.7165 28.0187 22.6414 25.3565 22.6414L19.434 22.6379C17.2628 22.0661 15.4037 22.103 13.9093 22.7501C11.6556 23.727 10.7138 25.8632 10.1508 27.1382C10.0158 27.4451 9.89829 27.7099 9.79482 27.8888L8.50926 30.1144C8.13218 29.9197 7.70424 29.8689 7.29212 29.9794C6.85191 30.0969 6.48535 30.3792 6.25911 30.7721L4.64206 33.5712C4.41582 33.9641 4.35444 34.4218 4.47369 34.862C4.5912 35.3022 4.87357 35.6688 5.26641 35.895L15.1579 41.6074C15.4245 41.7617 15.7174 41.8354 16.0067 41.8354C16.596 41.8354 17.1677 41.5302 17.4835 40.9848L19.1005 38.1857C19.3267 37.7928 19.3881 37.3351 19.2689 36.8949C19.1584 36.481 18.8988 36.1372 18.5428 35.9075L19.8283 33.6819C20.4562 32.5945 20.828 32.5401 21.8119 32.5401H25.8124C27.2418 32.5401 28.4853 32.2069 29.7234 31.4914L42.5283 24.0989C43.0615 23.792 43.4333 23.2711 43.549 22.6695C43.6648 22.0697 43.5117 21.4488 43.1311 20.9665ZM18.2725 37.7085L16.6554 40.5076C16.4502 40.8636 15.9925 40.9864 15.6365 40.7812L5.74321 35.0688C5.57134 34.9689 5.44857 34.8093 5.39596 34.6146C5.34334 34.4217 5.36965 34.22 5.46962 34.0481L7.08666 31.249C7.18663 31.0771 7.34622 30.9544 7.54089 30.9018C7.60578 30.8842 7.67067 30.8754 7.73732 30.8754C7.8671 30.8754 7.99338 30.9088 8.10738 30.9754L18.0006 36.6878C18.1725 36.7877 18.2953 36.9473 18.3479 37.142C18.397 37.3349 18.3707 37.5366 18.2725 37.7085ZM42.6103 22.4903C42.5472 22.8183 42.3437 23.1024 42.0508 23.2725L29.2459 30.665C28.1446 31.3016 27.0852 31.5858 25.812 31.5858H21.8115C20.6434 31.5858 19.8717 31.6945 19.0001 33.2063L17.7198 35.4249L9.34183 30.5862L10.6221 28.3676C10.7502 28.1449 10.8782 27.8573 11.0238 27.5258C11.5622 26.3034 12.3777 24.4566 14.2876 23.6288C15.5924 23.0641 17.2604 23.0465 19.2457 23.5779C19.286 23.5885 19.3281 23.5937 19.3685 23.5937H25.3579C28.0114 23.5937 29.1321 24.7899 29.2934 25.9088C29.3425 26.2437 29.2443 26.5787 29.0268 26.8313C28.8076 27.0838 28.4902 27.2276 28.1517 27.2276L21.6958 27.2294C21.4327 27.2294 21.2188 27.4434 21.2188 27.7064C21.2188 27.9695 21.4327 28.1835 21.6958 28.1835H28.1517C28.7673 28.1835 29.3496 27.9186 29.7494 27.4556C30.1248 27.0224 30.3054 26.4559 30.2528 25.886L37.8154 21.5207C40.1147 20.193 41.6808 20.6701 42.3806 21.5575C42.5893 21.8223 42.6734 22.1624 42.6103 22.4903Z" fill="#D6D9DC"/>
</svg>
