<svg width="48" height="48" viewBox="0 0 48 48" fill="none" xmlns="http://www.w3.org/2000/svg">
<path fill-rule="evenodd" clip-rule="evenodd" d="M23.9237 19.6938C21.5494 19.6938 19.6191 21.626 19.6191 23.9983C19.6191 26.3726 21.5494 28.3029 23.9237 28.3029C26.2979 28.3029 28.2282 26.3706 28.2282 23.9983C28.2282 21.624 26.296 19.6938 23.9237 19.6938ZM23.9237 29.32C20.9896 29.32 18.6016 26.9322 18.6016 23.9979C18.6016 21.0636 20.9874 18.6758 23.9237 18.6758C26.8577 18.6758 29.2458 21.0636 29.2458 23.9979C29.2458 26.9322 26.8599 29.32 23.9237 29.32Z" fill="#D6D9DC"/>
<path fill-rule="evenodd" clip-rule="evenodd" d="M23.924 22.5466C23.1229 22.5466 22.4724 23.1971 22.4724 23.9982C22.4724 24.7973 23.1229 25.4498 23.924 25.4498C24.7231 25.4498 25.3756 24.7993 25.3756 23.9982C25.3756 23.1971 24.7231 22.5466 23.924 22.5466ZM23.924 26.4651C22.5631 26.4651 21.457 25.3591 21.457 23.9982C21.457 22.6373 22.5631 21.5312 23.924 21.5312C25.2848 21.5312 26.3909 22.6373 26.3909 23.9982C26.3909 25.3591 25.2848 26.4651 23.924 26.4651Z" fill="#D6D9DC"/>
<path fill-rule="evenodd" clip-rule="evenodd" d="M6.88264 35.4945C6.75331 35.4945 6.62205 35.4443 6.5236 35.3458C0.26557 29.0898 0.26557 18.9071 6.5236 12.6511C6.72242 12.4522 7.04287 12.4522 7.24167 12.6511C7.44049 12.8499 7.44049 13.1703 7.24167 13.3691C1.38143 19.2294 1.38143 28.7671 7.24167 34.6279C7.44049 34.8267 7.44049 35.1471 7.24167 35.3459C7.14322 35.4444 7.0139 35.4945 6.88264 35.4945Z" fill="#D6D9DC"/>
<path fill-rule="evenodd" clip-rule="evenodd" d="M9.81393 32.5674C9.68267 32.5674 9.55334 32.5172 9.4549 32.4187C7.20608 30.1699 5.96875 27.1816 5.96875 24.0007C5.96875 20.8215 7.20608 17.8316 9.4549 15.5827C9.65372 15.3839 9.97416 15.3839 10.173 15.5827C10.3718 15.7815 10.3718 16.102 10.173 16.3008C8.11523 18.3566 6.9841 21.0918 6.9841 23.9988C6.9841 26.9078 8.11528 29.6411 10.173 31.6968C10.3718 31.8956 10.3718 32.2161 10.173 32.4149C10.0726 32.5133 9.94325 32.5635 9.81392 32.5635L9.81393 32.5674Z" fill="#D6D9DC"/>
<path fill-rule="evenodd" clip-rule="evenodd" d="M12.7423 29.6344C12.613 29.6344 12.4817 29.5842 12.3833 29.4857C10.9162 28.0206 10.1094 26.071 10.1094 23.9981C10.1094 21.9252 10.9162 19.9773 12.3833 18.5104C12.5821 18.3116 12.9026 18.3116 13.1014 18.5104C13.3002 18.7093 13.3002 19.0297 13.1014 19.2285C11.8274 20.5025 11.1267 22.1954 11.1267 23.9983C11.1267 25.7992 11.8293 27.4941 13.1014 28.7661C13.3002 28.9649 13.3002 29.2854 13.1014 29.4842C13.0029 29.5826 12.8717 29.6328 12.7423 29.6328L12.7423 29.6344Z" fill="#D6D9DC"/>
<path fill-rule="evenodd" clip-rule="evenodd" d="M15.6727 26.7061C15.5433 26.7061 15.414 26.6559 15.3136 26.5574C14.6322 25.8741 14.2539 24.9668 14.2539 23.9998C14.2539 23.0346 14.6303 22.1254 15.3136 21.4421C15.5125 21.2433 15.8329 21.2433 16.0317 21.4421C16.2305 21.6409 16.2305 21.9613 16.0317 22.1601C15.0183 23.1736 15.0183 24.824 16.0317 25.8374C16.2305 26.0362 16.2305 26.3566 16.0317 26.5554C15.9313 26.6539 15.802 26.7041 15.6727 26.7041L15.6727 26.7061Z" fill="#D6D9DC"/>
<path fill-rule="evenodd" clip-rule="evenodd" d="M41.1195 35.4946C40.9901 35.4946 40.8589 35.4444 40.7604 35.3459C40.5616 35.1471 40.5616 34.8267 40.7604 34.6279C46.6207 28.7676 46.6207 19.2299 40.7604 13.3691C40.5616 13.1703 40.5616 12.8499 40.7604 12.6511C40.9593 12.4522 41.2797 12.4522 41.4785 12.6511C47.7365 18.9071 47.7365 29.0898 41.4785 35.3458C41.3801 35.4443 41.2488 35.4946 41.1195 35.4946Z" fill="#D6D9DC"/>
<path fill-rule="evenodd" clip-rule="evenodd" d="M38.1878 32.5674C38.0566 32.5674 37.9272 32.5172 37.8288 32.4188C37.63 32.2199 37.63 31.8995 37.8288 31.7007C39.8865 29.6449 41.0177 26.9097 41.0177 24.0027C41.0177 21.0937 39.8865 18.3604 37.8288 16.3047C37.63 16.1059 37.63 15.7854 37.8288 15.5866C38.0276 15.3878 38.3481 15.3878 38.5469 15.5866C43.1873 20.2271 43.1873 27.7805 38.5469 32.4206C38.4465 32.5191 38.3172 32.5693 38.1878 32.5693L38.1878 32.5674Z" fill="#D6D9DC"/>
<path fill-rule="evenodd" clip-rule="evenodd" d="M35.2581 29.6369C35.1288 29.6369 34.9976 29.5867 34.8991 29.4882C34.7003 29.2894 34.7003 28.969 34.8991 28.7702C37.5282 26.1411 37.5282 21.8618 34.8991 19.2324C34.7003 19.0336 34.7003 18.7131 34.8991 18.5143C35.0979 18.3155 35.4184 18.3155 35.6172 18.5143C38.6439 21.5391 38.6439 26.4634 35.6172 29.4881C35.5187 29.5866 35.3875 29.6369 35.2581 29.6369Z" fill="#D6D9DC"/>
<path fill-rule="evenodd" clip-rule="evenodd" d="M32.3304 26.708C32.1992 26.708 32.0698 26.6578 31.9714 26.5593C31.7726 26.3605 31.7726 26.0401 31.9714 25.8413C32.9848 24.8279 32.9848 23.1775 31.9714 22.164C31.7726 21.9652 31.7726 21.6448 31.9714 21.446C32.1702 21.2472 32.4906 21.2472 32.6894 21.446C33.3728 22.1293 33.7492 23.0366 33.7492 24.0037C33.7492 24.9688 33.3728 25.878 32.6894 26.5613C32.5891 26.6598 32.4597 26.71 32.3304 26.71L32.3304 26.708Z" fill="#D6D9DC"/>
</svg>
