<svg width="24" height="24" viewBox="0 0 24 24" fill="none" xmlns="http://www.w3.org/2000/svg">
<g clip-path="url(#clip0_1493_10316)">
<path fill-rule="evenodd" clip-rule="evenodd" d="M12.354 0.819255C12.1284 0.716499 11.8693 0.716499 11.6436 0.819255L7.14874 2.866L11.9956 5.07304L16.8457 2.86454L12.354 0.819255ZM6.34021 9.616V4.38148L11.1384 6.56639V12.3524L6.84214 10.3961C6.53643 10.2569 6.34021 9.95191 6.34021 9.616ZM12.8527 21.1229V15.3967L17.4003 17.4674V23.2536L13.104 21.2972C13.0087 21.2539 12.9241 21.1944 12.8527 21.1229ZM19.1145 23.2565V17.4674L23.9193 15.2796V20.5171C23.9193 20.8531 23.7231 21.158 23.4174 21.2972L19.1145 23.2565ZM11.1384 15.3966V21.1291C11.0684 21.1978 10.9859 21.2551 10.8934 21.2972L6.59065 23.2565V17.4674L11.1384 15.3966ZM4.87637 17.4674V23.2536L0.580058 21.2972C0.274344 21.158 0.078125 20.8531 0.078125 20.5171V15.2825L4.87637 17.4674ZM12.8527 12.3553V6.56639L17.6574 4.37855V9.616C17.6574 9.95191 17.4613 10.2569 17.1555 10.3961L12.8527 12.3553ZM17.9055 11.7204C18.1311 11.6176 18.3903 11.6176 18.6159 11.7204L23.1075 13.7656L18.2574 15.9741L13.4107 13.7671L17.9055 11.7204ZM5.38152 11.7204C5.60718 11.6176 5.86628 11.6176 6.09195 11.7204L10.5835 13.7656L5.73351 15.9741L0.886715 13.7671L5.38152 11.7204Z" fill="black"/>
</g>
<defs>
<clipPath id="clip0_1493_10316">
<rect width="24" height="24" fill="white"/>
</clipPath>
</defs>
</svg>
