<svg width="24" height="24" viewBox="0 0 24 24" fill="none" xmlns="http://www.w3.org/2000/svg">
<g clip-path="url(#clip0_1493_10306)">
<path fill-rule="evenodd" clip-rule="evenodd" d="M11.9989 3.42857C11.0896 3.42857 10.2175 3.78979 9.57452 4.43278C8.93154 5.07576 8.57031 5.94783 8.57031 6.85714V8.57143H15.4275V6.85714C15.4275 5.94783 15.0662 5.07576 14.4232 4.43278C13.7803 3.78979 12.9082 3.42857 11.9989 3.42857ZM5.14174 6.85714V8.57143C4.45976 8.57143 3.8057 8.84235 3.32347 9.32458C2.84123 9.80682 2.57031 10.4609 2.57031 11.1429V21.4286C2.57031 22.1106 2.84123 22.7646 3.32347 23.2468C3.8057 23.7291 4.45976 24 5.14174 24H18.856C19.538 24 20.1921 23.7291 20.6743 23.2468C21.1565 22.7646 21.4275 22.1106 21.4275 21.4286V11.1429C21.4275 10.4609 21.1565 9.80682 20.6743 9.32458C20.1921 8.84235 19.538 8.57143 18.856 8.57143V6.85714C18.856 5.03852 18.1336 3.29437 16.8476 2.00841C15.5617 0.722447 13.8175 0 11.9989 0C10.1803 0 8.43612 0.722447 7.15015 2.00841C5.86419 3.29437 5.14174 5.03852 5.14174 6.85714ZM11.9989 18.4286C12.2803 18.4286 12.5589 18.3731 12.8189 18.2655C13.0789 18.1578 13.3151 17.9999 13.5141 17.8009C13.7131 17.602 13.8709 17.3657 13.9786 17.1058C14.0863 16.8458 14.1417 16.5671 14.1417 16.2857C14.1417 16.0043 14.0863 15.7257 13.9786 15.4657C13.8709 15.2057 13.7131 14.9695 13.5141 14.7705C13.3151 14.5715 13.0789 14.4137 12.8189 14.306C12.5589 14.1983 12.2803 14.1429 11.9989 14.1429C11.4306 14.1429 10.8855 14.3686 10.4837 14.7705C10.0818 15.1723 9.85603 15.7174 9.85603 16.2857C9.85603 16.854 10.0818 17.3991 10.4837 17.8009C10.8855 18.2028 11.4306 18.4286 11.9989 18.4286Z" fill="black"/>
</g>
<defs>
<clipPath id="clip0_1493_10306">
<rect width="24" height="24" fill="white"/>
</clipPath>
</defs>
</svg>
